<?xml version="1.0" encoding="UTF-8" standalone="no"?>
<!-- Created with Inkscape (http://www.inkscape.org/) -->

<svg
   xmlns:dc="http://purl.org/dc/elements/1.1/"
   xmlns:cc="http://creativecommons.org/ns#"
   xmlns:rdf="http://www.w3.org/1999/02/22-rdf-syntax-ns#"
   xmlns:svg="http://www.w3.org/2000/svg"
   xmlns="http://www.w3.org/2000/svg"
   xmlns:sodipodi="http://sodipodi.sourceforge.net/DTD/sodipodi-0.dtd"
   xmlns:inkscape="http://www.inkscape.org/namespaces/inkscape"
   version="1.1"
   id="svg29"
   xml:space="preserve"
   width="81.440002"
   height="72"
   viewBox="0 0 81.440002 72"
   sodipodi:docname="In-2CRev-CMYK-0p75in-R.eps"
   inkscape:version="0.92.1 r"><metadata
     id="metadata35"><rdf:RDF><cc:Work
         rdf:about=""><dc:format>image/svg+xml</dc:format><dc:type
           rdf:resource="http://purl.org/dc/dcmitype/StillImage" /><dc:title></dc:title></cc:Work></rdf:RDF></metadata><defs
     id="defs33" /><sodipodi:namedview
     pagecolor="#ffffff"
     bordercolor="#666666"
     borderopacity="1"
     objecttolerance="10"
     gridtolerance="10"
     guidetolerance="10"
     inkscape:pageopacity="0"
     inkscape:pageshadow="2"
     inkscape:window-width="1600"
     inkscape:window-height="877"
     id="namedview31"
     showgrid="false"
     inkscape:zoom="9.5138889"
     inkscape:cx="40.720001"
     inkscape:cy="36"
     inkscape:window-x="0"
     inkscape:window-y="23"
     inkscape:window-maximized="0"
     inkscape:current-layer="g37" /><g
     id="g37"
     inkscape:groupmode="layer"
     inkscape:label="ink_ext_XXXXXX"
     transform="matrix(1.3333333,0,0,-1.3333333,0,72)"><g
       id="g39"
       transform="scale(0.1)"><path
         d="m 584.246,100.605 h -4.605 v 9.336 h 5.839 c 3.016,0 6.473,-0.488 6.473,-4.433 0,-4.539 -3.484,-4.903 -7.707,-4.903 z m 4.582,-2.773 c 4.656,0.5743 7.09,3.137 7.09,7.441 0,5.262 -3.184,7.813 -9.727,7.813 H 575.684 V 85.4609 h 3.957 v 12.0196 h 4.89 l 0.11,-0.1367 7.566,-11.8829 h 4.238 l -8.144,12.3047 0.527,0.0664"
         style="fill:#ffffff;fill-opacity:1;fill-rule:nonzero;stroke:none"
         id="path41"
         inkscape:connector-curvature="0" /><path
         d="m 584.688,76.5234 c -12.5,0 -22.317,9.8711 -22.317,22.7149 0,12.8127 9.817,22.7027 22.317,22.7027 12.531,0 22.332,-9.89 22.332,-22.7027 0,-12.8438 -9.801,-22.7149 -22.332,-22.7149 z m 0,48.8476 c -14.668,0 -26.165,-11.484 -26.165,-26.1327 0,-14.668 11.497,-26.1328 26.165,-26.1328 14.667,0 26.164,11.4648 26.164,26.1328 0,14.6487 -11.497,26.1327 -26.164,26.1327"
         style="fill:#ffffff;fill-opacity:1;fill-rule:nonzero;stroke:none"
         id="path43"
         inkscape:connector-curvature="0" /><path
         d="M 500.039,540 H 39.8516 C 17.8711,540 0,522.563 0,501.059 V 38.9648 C 0,17.4609 17.8711,0 39.8516,0 H 500.039 C 522.07,0 539.98,17.4609 539.98,38.9648 V 501.059 c 0,21.504 -17.91,38.941 -39.941,38.941"
         style="fill:#0977b6;fill-opacity:1;fill-rule:nonzero;stroke:none"
         id="path45"
         inkscape:connector-curvature="0" /><path
         d="m 120.09,465.664 c 25.601,0 46.414,-20.809 46.414,-46.461 0,-25.625 -20.813,-46.433 -46.414,-46.433 -25.6681,0 -46.4181,20.808 -46.4181,46.433 0,25.652 20.75,46.461 46.4181,46.461 M 80.0313,337.563 H 160.145 V 79.8633 H 80.0313 V 337.563"
         style="fill:#ffffff;fill-opacity:1;fill-rule:nonzero;stroke:none"
         id="path47"
         inkscape:connector-curvature="0" /><path
         d="m 210.383,337.563 h 76.812 v -35.239 h 1.106 c 10.691,20.27 36.816,41.621 75.781,41.621 81.106,0 96.074,-53.355 96.074,-122.746 V 79.8633 H 380.098 V 205.188 c 0,29.89 -0.528,68.328 -41.621,68.328 -41.68,0 -48.039,-32.578 -48.039,-66.18 V 79.8633 H 210.383 V 337.563"
         style="fill:#ffffff;fill-opacity:1;fill-rule:nonzero;stroke:none"
         id="path49"
         inkscape:connector-curvature="0" /></g></g></svg>