<?xml version="1.0" encoding="UTF-8" standalone="no"?>
<!-- Created with Inkscape (http://www.inkscape.org/) -->

<svg
   xmlns:dc="http://purl.org/dc/elements/1.1/"
   xmlns:cc="http://creativecommons.org/ns#"
   xmlns:rdf="http://www.w3.org/1999/02/22-rdf-syntax-ns#"
   xmlns:svg="http://www.w3.org/2000/svg"
   xmlns="http://www.w3.org/2000/svg"
   xmlns:sodipodi="http://sodipodi.sourceforge.net/DTD/sodipodi-0.dtd"
   xmlns:inkscape="http://www.inkscape.org/namespaces/inkscape"
   width="10.688mm"
   height="10.31952mm"
   viewBox="0 0 10.688 10.31952"
   version="1.1"
   id="svg3787"
   inkscape:version="0.92.1 r">
  <defs
     id="defs3781" />
  <sodipodi:namedview
     id="base"
     pagecolor="#ffffff"
     bordercolor="#666666"
     borderopacity="1.0"
     inkscape:pageopacity="0.0"
     inkscape:pageshadow="2"
     inkscape:zoom="10.24"
     inkscape:cx="18.19503"
     inkscape:cy="12.963586"
     inkscape:document-units="mm"
     inkscape:current-layer="layer1"
     showgrid="false"
     inkscape:window-width="800"
     inkscape:window-height="877"
     inkscape:window-x="800"
     inkscape:window-y="23"
     inkscape:window-maximized="0" />
  <metadata
     id="metadata3784">
    <rdf:RDF>
      <cc:Work
         rdf:about="">
        <dc:format>image/svg+xml</dc:format>
        <dc:type
           rdf:resource="http://purl.org/dc/dcmitype/StillImage" />
        <dc:title></dc:title>
      </cc:Work>
    </rdf:RDF>
  </metadata>
  <g
     inkscape:label="Layer 1"
     inkscape:groupmode="layer"
     id="layer1"
     transform="translate(-81.854983,-126.5944)">
    <path
       id="path16"
       style="fill:#1b1817;fill-opacity:1;fill-rule:evenodd;stroke:none;stroke-width:0.03264164;image-rendering:auto"
       d="m 87.198603,126.5944 c -2.95067,0 -5.34362,2.36854 -5.34362,5.2905 0,2.33705 1.5311,4.32009 3.65471,5.01997 0.26738,0.0484 0.36481,-0.11497 0.36481,-0.25527 0,-0.12568 -0.005,-0.45825 -0.007,-0.89961 -1.48648,0.31957 -1.80012,-0.7093 -1.80012,-0.7093 -0.2431,-0.61122 -0.59348,-0.77393 -0.59348,-0.77393 -0.48522,-0.32801 0.0367,-0.32152 0.0367,-0.32152 0.5364,0.0374 0.81854,0.54529 0.81854,0.54529 0.47669,0.80835 1.25094,0.57484 1.55539,0.43942 0.0486,-0.34166 0.18667,-0.57485 0.33922,-0.70703 -1.18663,-0.1338 -2.43429,-0.58751 -2.43429,-2.61472 0,-0.57777 0.20833,-1.04966 0.55018,-1.41957 -0.0551,-0.13381 -0.23851,-0.67163 0.0525,-1.40009 0,0 0.44847,-0.14225 1.46943,0.54204 0.42616,-0.11724 0.8835,-0.1757 1.33787,-0.17797 0.45405,0.002 0.91106,0.0607 1.33788,0.17797 1.0203,-0.68429 1.46812,-0.54204 1.46812,-0.54204 0.29165,0.72846 0.10826,1.26628 0.0535,1.40009 0.34251,0.36991 0.54919,0.8418 0.54919,1.41957 0,2.03241 -1.24962,2.47962 -2.43986,2.6105 0.19159,0.16336 0.36252,0.48618 0.36252,0.97983 0,0.70702 -0.007,1.27765 -0.007,1.45107 0,0.1416 0.0965,0.30626 0.36744,0.25462 2.12196,-0.70118 3.65175,-2.6826 3.65175,-5.01932 0,-2.92196 -2.39295,-5.2905 -5.3446,-5.2905"
       inkscape:connector-curvature="0" />
  </g>
</svg>
